# xmcd
#
# Track frame offsets:
#	150
#	12587
#	23095
#	35244
#	48469
#	61860
#	75530
#	86998
#	97433
#	108662
#	122255
#	135810
#	147761
#	158013
#	169564
#	180674
#	191447
#	200589
#	210780
#	221360
#	232024
#	245076
#	256333
#	265589
#
# Disc length: 3666 seconds
#
# Revision: 1
# Processed by: cddbd v1.5.2PL0 Copyright (c) Steve Scherf et al.
# Submitted via: audiograbber 1.83.01
#
DISCID=4a0e5018
DTITLE=slim whitman - six classic albums cd2
DYEAR=2013
DGENRE=Country
TTITLE0=by the waters of minnetonka
TTITLE1=serenade
TTITLE2=dear mary
TTITLE3=i'll take you home again kathleen
TTITLE4=all that i'm asking is sympathy
TTITLE5=tumbling tumbleweeds
TTITLE6=when i grow too old to dream
TTITLE7=curtain of tears
TTITLE8=i'm casting my lasso towards the sky
TTITLE9=haunted hungry heart
TTITLE10=roll on silvery moon
TTITLE11=we stood at the alter
TTITLE12=put your trust in me
TTITLE13=when it's springtime in the rockies
TTITLE14=at the end of nowhere
TTITLE15=mexicali rose
TTITLE16=my best to you
TTITLE17=cowpoke
TTITLE18=a very precious love
TTITLE19=careless hands
TTITLE20=among my souvenirs
TTITLE21=in the valley of the moon
TTITLE22=candy kisses
TTITLE23=tormented
EXTD=
EXTT0=
EXTT1=
EXTT2=
EXTT3=
EXTT4=
EXTT5=
EXTT6=
EXTT7=
EXTT8=
EXTT9=
EXTT10=
EXTT11=
EXTT12=
EXTT13=
EXTT14=
EXTT15=
EXTT16=
EXTT17=
EXTT18=
EXTT19=
EXTT20=
EXTT21=
EXTT22=
EXTT23=
PLAYORDER=
